# xmcd CD database file
#
# Track frame offsets:
#	183
#	35185
#	71128
#	95935
#	117550
#	121848
#	167718
#	186805
#	214095
#
# Disc length: 3430 seconds
#
# Revision: 0
# Processed by: cddbd v1.5.1PL0 Copyright (c) Steve Scherf et al.
# Submitted via: CDex 1.51
#
DISCID=8c0d6409
DTITLE=Mezcal - Jazz Unit
DYEAR=1992
DGENRE=Jazz
TTITLE0=Zoom y Swannito
TTITLE1=Mac'Hasma
TTITLE2=Sentimental Pipeau
TTITLE3=507 heures
TTITLE4=Crétin des alpes
TTITLE5=Et voilà
TTITLE6=Manolos' Carbonara
TTITLE7=Cavalade
TTITLE8='atche de !
EXTD=YEAR: 1992
EXTT0=
EXTT1=
EXTT2=
EXTT3=
EXTT4=
EXTT5=
EXTT6=
EXTT7=
EXTT8=
PLAYORDER=
